<?xml version="1.0" encoding="UTF-8" standalone="no"?>
<!DOCTYPE svg PUBLIC "-//W3C//DTD SVG 1.1//EN" "http://www.w3.org/Graphics/SVG/1.1/DTD/svg11.dtd">
<svg viewBox="0 0 124 124" version="1.1" xmlns="http://www.w3.org/2000/svg" xmlns:xlink="http://www.w3.org/1999/xlink" xml:space="preserve" xmlns:serif="http://www.serif.com/"  x="0px" y="0px" style="fill-rule:evenodd;clip-rule:evenodd;stroke-linejoin:round;stroke-miterlimit:2;">
    <g id="Artboard1" transform="matrix(0.954398,0,0,0.995183,-214.871,-244.237)">
        <rect x="225.138" y="245.419" width="129.878" height="124.6" style="fill:none;"/>
        <g transform="matrix(1.04778,0,0,1.00484,-14.2857,-0.0622957)">
            <g transform="matrix(144,0,0,144,225.138,317.246)">
                <path d="M0.325,-0.113C0.296,-0.072 0.267,-0.042 0.24,-0.022C0.212,-0.002 0.183,0.007 0.154,0.007C0.118,0.007 0.091,-0.006 0.071,-0.033C0.051,-0.06 0.042,-0.098 0.042,-0.147C0.042,-0.178 0.045,-0.21 0.052,-0.241C0.059,-0.272 0.07,-0.302 0.085,-0.33C0.099,-0.358 0.117,-0.383 0.137,-0.405C0.157,-0.426 0.18,-0.443 0.207,-0.456C0.233,-0.469 0.262,-0.475 0.293,-0.475C0.314,-0.475 0.333,-0.473 0.351,-0.468C0.369,-0.463 0.388,-0.455 0.408,-0.443L0.453,-0.475L0.484,-0.467L0.359,0.088C0.353,0.113 0.351,0.131 0.351,0.144C0.351,0.154 0.352,0.161 0.355,0.167C0.359,0.172 0.364,0.176 0.371,0.179C0.378,0.182 0.389,0.184 0.405,0.186L0.4,0.21L0.248,0.21L0.332,-0.11L0.325,-0.113ZM0.365,-0.297C0.368,-0.312 0.37,-0.324 0.371,-0.334C0.372,-0.344 0.372,-0.354 0.372,-0.364C0.372,-0.389 0.367,-0.408 0.356,-0.419C0.345,-0.431 0.327,-0.437 0.302,-0.437C0.289,-0.437 0.276,-0.434 0.263,-0.43C0.251,-0.426 0.238,-0.418 0.226,-0.408C0.213,-0.398 0.201,-0.384 0.189,-0.368C0.178,-0.351 0.167,-0.331 0.158,-0.307C0.148,-0.283 0.141,-0.258 0.136,-0.231C0.131,-0.204 0.128,-0.177 0.128,-0.151C0.128,-0.118 0.133,-0.092 0.142,-0.075C0.151,-0.059 0.167,-0.05 0.188,-0.05C0.199,-0.05 0.209,-0.053 0.22,-0.057C0.231,-0.062 0.243,-0.07 0.256,-0.082C0.27,-0.094 0.285,-0.112 0.302,-0.136C0.317,-0.158 0.329,-0.18 0.338,-0.201C0.347,-0.222 0.354,-0.247 0.36,-0.276L0.365,-0.297Z" style="fill:white;fill-rule:nonzero;"/>
            </g>
            <g transform="matrix(83.952,0,0,83.952,300.232,365.198)">
                <path d="M0.059,-0L0.059,-0.024C0.074,-0.028 0.084,-0.032 0.091,-0.035C0.097,-0.039 0.102,-0.043 0.106,-0.049C0.11,-0.054 0.112,-0.062 0.114,-0.073C0.115,-0.083 0.116,-0.1 0.116,-0.122L0.116,-0.544C0.116,-0.567 0.115,-0.584 0.114,-0.594C0.112,-0.604 0.109,-0.612 0.106,-0.618C0.102,-0.623 0.097,-0.628 0.091,-0.631C0.085,-0.635 0.074,-0.638 0.059,-0.643L0.059,-0.667L0.272,-0.667C0.334,-0.667 0.384,-0.66 0.424,-0.646C0.463,-0.633 0.496,-0.613 0.523,-0.586C0.55,-0.56 0.57,-0.527 0.583,-0.488C0.597,-0.449 0.604,-0.402 0.604,-0.348C0.604,-0.293 0.597,-0.244 0.585,-0.202C0.572,-0.161 0.554,-0.125 0.53,-0.097C0.509,-0.072 0.483,-0.052 0.453,-0.036C0.428,-0.023 0.399,-0.014 0.366,-0.008C0.333,-0.003 0.29,-0 0.235,-0L0.059,-0ZM0.208,-0.045C0.221,-0.044 0.24,-0.043 0.265,-0.043C0.292,-0.043 0.317,-0.046 0.338,-0.05C0.36,-0.055 0.379,-0.062 0.397,-0.072C0.415,-0.082 0.43,-0.095 0.444,-0.113C0.458,-0.13 0.47,-0.15 0.479,-0.173C0.487,-0.195 0.494,-0.22 0.498,-0.248C0.502,-0.276 0.504,-0.306 0.504,-0.339C0.504,-0.405 0.494,-0.459 0.475,-0.502C0.456,-0.544 0.429,-0.575 0.395,-0.595C0.36,-0.614 0.319,-0.624 0.271,-0.624C0.248,-0.624 0.227,-0.623 0.208,-0.622L0.208,-0.045Z" style="fill:white;fill-rule:nonzero;"/>
            </g>
        </g>
    </g>
</svg>
